# xmcd
#
# Track frame offsets:
#	150
#	18132
#	32780
#	46827
#	61005
#	77272
#	92012
#	111845
#	128107
#	146425
#	158877
#	177145
#
# Disc length: 2602 seconds
#
# Revision: 1
# Processed by: cddbd v1.5.1PL0 Copyright (c) Steve Scherf et al.
# Submitted via: audiograbber 1.81.01
#
DISCID=860a280c
DTITLE=Amigos Sertanejos - Um ano sem Leandro
DYEAR=1900
DGENRE=
TTITLE0=Um sonhador
TTITLE1=Pense em mim
TTITLE2=Temporal de amor
TTITLE3=Cumpade e cumade
TTITLE4=Entre tapas e beijos
TTITLE5=Diz pra mim
TTITLE6=Deu medo
TTITLE7=Não aprendi dizer adeus
TTITLE8=Solidão
TTITLE9=Dor de amor não tem jeito
TTITLE10=Desculpe mas eu vou chorar
TTITLE11=Dia de rodeio
EXTD=
EXTT0=
EXTT1=
EXTT2=
EXTT3=
EXTT4=
EXTT5=
EXTT6=
EXTT7=
EXTT8=
EXTT9=
EXTT10=
EXTT11=
PLAYORDER=
